<svg width="187" height="144" viewBox="0 0 187 144" fill="none" xmlns="http://www.w3.org/2000/svg">
<path d="M160.686 82.186V67.4078C160.686 30.2396 130.448 0 93.278 0C56.1084 0 25.8703 30.2396 25.8703 67.4078V82.186C11.3511 83.7231 0.000244141 96.0404 0.000244141 110.961C0.000244141 126.918 12.9822 139.9 28.9389 139.9H29.5139C29.6434 139.9 29.7701 139.892 29.8968 139.88C32.1015 141.901 35.0378 143.136 38.2587 143.136C45.0891 143.136 50.6472 137.58 50.6472 130.748V87.0238C50.6472 80.1933 45.0891 74.6353 38.2587 74.6353C36.4411 74.6353 34.7147 75.0324 33.1576 75.7384V67.4078C33.1576 34.2575 60.1278 7.28733 93.278 7.28733C126.428 7.28733 153.398 34.2575 153.398 67.4078V75.7384C151.841 75.0324 150.115 74.6353 148.297 74.6353C141.467 74.6353 135.909 80.1933 135.909 87.0238V130.748C135.909 137.58 141.467 143.136 148.297 143.136C151.518 143.136 154.455 141.901 156.659 139.88C156.786 139.892 156.913 139.9 157.042 139.9H157.617C173.574 139.9 186.556 126.918 186.556 110.961C186.556 96.0404 175.205 83.7231 160.686 82.186ZM25.8703 132.396C15.3791 130.901 7.28757 121.858 7.28757 110.961C7.28757 100.063 15.3791 91.0204 25.8703 89.5259V132.396ZM38.2587 81.9226C41.0712 81.9226 43.3598 84.2113 43.3598 87.0238V130.748C43.3598 133.56 41.0712 135.849 38.2587 135.849C35.4463 135.849 33.1576 133.56 33.1576 130.748V87.0238C33.1576 84.2113 35.4463 81.9226 38.2587 81.9226ZM148.297 135.849C145.485 135.849 143.196 133.56 143.196 130.748V87.0238C143.196 84.2113 145.485 81.9226 148.297 81.9226C151.11 81.9226 153.398 84.2113 153.398 87.0238V130.748C153.398 133.56 151.11 135.849 148.297 135.849ZM160.686 132.396V89.5245C171.177 91.0204 179.268 100.063 179.268 110.959C179.268 121.858 171.177 130.901 160.686 132.396Z" fill="#123A42"/>
</svg>
